<mxfile host="app.diagrams.net" modified="2023-02-05T13:50:29.220Z" agent="5.0 (Windows NT 10.0; Win64; x64) AppleWebKit/537.36 (KHTML, like Gecko) Chrome/109.0.0.0 Safari/537.36 Edg/109.0.1518.78" etag="YlLsDRU4LHjyrja2r1f5" version="20.8.16" type="github">
  <diagram name="第 1 页" id="jTtbrs_hHy0N8V0pxUux">
    <mxGraphModel dx="720" dy="1988" grid="1" gridSize="10" guides="1" tooltips="1" connect="1" arrows="1" fold="1" page="1" pageScale="1" pageWidth="827" pageHeight="1169" math="0" shadow="0">
      <root>
        <mxCell id="0" />
        <mxCell id="1" parent="0" />
        <mxCell id="nZG-m9UGaCtWOJ31mHN9-69" value="" style="rounded=1;whiteSpace=wrap;html=1;dashed=1;" vertex="1" parent="1">
          <mxGeometry x="330" y="50" width="170" height="330" as="geometry" />
        </mxCell>
        <mxCell id="nZG-m9UGaCtWOJ31mHN9-68" value="" style="rounded=1;whiteSpace=wrap;html=1;dashed=1;" vertex="1" parent="1">
          <mxGeometry x="140" y="190" width="170" height="190" as="geometry" />
        </mxCell>
        <mxCell id="nZG-m9UGaCtWOJ31mHN9-11" style="edgeStyle=orthogonalEdgeStyle;rounded=0;orthogonalLoop=1;jettySize=auto;html=1;exitX=0.5;exitY=0;exitDx=0;exitDy=0;entryX=0.5;entryY=1;entryDx=0;entryDy=0;" edge="1" parent="1" source="nZG-m9UGaCtWOJ31mHN9-1" target="nZG-m9UGaCtWOJ31mHN9-7">
          <mxGeometry relative="1" as="geometry" />
        </mxCell>
        <mxCell id="nZG-m9UGaCtWOJ31mHN9-1" value="输入嵌入" style="rounded=0;whiteSpace=wrap;html=1;" vertex="1" parent="1">
          <mxGeometry x="180" y="430" width="110" height="30" as="geometry" />
        </mxCell>
        <mxCell id="nZG-m9UGaCtWOJ31mHN9-27" style="edgeStyle=orthogonalEdgeStyle;rounded=0;orthogonalLoop=1;jettySize=auto;html=1;exitX=0.5;exitY=0;exitDx=0;exitDy=0;entryX=1;entryY=0.5;entryDx=0;entryDy=0;" edge="1" parent="1" source="nZG-m9UGaCtWOJ31mHN9-2" target="nZG-m9UGaCtWOJ31mHN9-26">
          <mxGeometry relative="1" as="geometry" />
        </mxCell>
        <mxCell id="nZG-m9UGaCtWOJ31mHN9-2" value="输出嵌入" style="rounded=0;whiteSpace=wrap;html=1;" vertex="1" parent="1">
          <mxGeometry x="353" y="430" width="120" height="30" as="geometry" />
        </mxCell>
        <mxCell id="nZG-m9UGaCtWOJ31mHN9-17" value="" style="edgeStyle=orthogonalEdgeStyle;rounded=0;orthogonalLoop=1;jettySize=auto;html=1;" edge="1" parent="1" source="nZG-m9UGaCtWOJ31mHN9-4" target="nZG-m9UGaCtWOJ31mHN9-15">
          <mxGeometry relative="1" as="geometry" />
        </mxCell>
        <mxCell id="nZG-m9UGaCtWOJ31mHN9-4" value="多头自注意力层" style="rounded=0;whiteSpace=wrap;html=1;" vertex="1" parent="1">
          <mxGeometry x="180" y="290" width="110" height="30" as="geometry" />
        </mxCell>
        <mxCell id="nZG-m9UGaCtWOJ31mHN9-9" value="" style="edgeStyle=orthogonalEdgeStyle;rounded=0;orthogonalLoop=1;jettySize=auto;html=1;" edge="1" parent="1" source="nZG-m9UGaCtWOJ31mHN9-7" target="nZG-m9UGaCtWOJ31mHN9-4">
          <mxGeometry relative="1" as="geometry" />
        </mxCell>
        <mxCell id="nZG-m9UGaCtWOJ31mHN9-7" value="+" style="ellipse;whiteSpace=wrap;html=1;aspect=fixed;" vertex="1" parent="1">
          <mxGeometry x="225" y="390" width="20" height="20" as="geometry" />
        </mxCell>
        <mxCell id="nZG-m9UGaCtWOJ31mHN9-14" value="" style="edgeStyle=orthogonalEdgeStyle;rounded=0;orthogonalLoop=1;jettySize=auto;html=1;" edge="1" parent="1" source="nZG-m9UGaCtWOJ31mHN9-13" target="nZG-m9UGaCtWOJ31mHN9-7">
          <mxGeometry relative="1" as="geometry" />
        </mxCell>
        <mxCell id="nZG-m9UGaCtWOJ31mHN9-13" value="位置嵌入" style="rounded=0;whiteSpace=wrap;html=1;" vertex="1" parent="1">
          <mxGeometry x="70" y="385" width="110" height="30" as="geometry" />
        </mxCell>
        <mxCell id="nZG-m9UGaCtWOJ31mHN9-24" value="" style="edgeStyle=orthogonalEdgeStyle;rounded=0;orthogonalLoop=1;jettySize=auto;html=1;" edge="1" parent="1" source="nZG-m9UGaCtWOJ31mHN9-15" target="nZG-m9UGaCtWOJ31mHN9-23">
          <mxGeometry relative="1" as="geometry" />
        </mxCell>
        <mxCell id="nZG-m9UGaCtWOJ31mHN9-15" value="+" style="ellipse;whiteSpace=wrap;html=1;aspect=fixed;" vertex="1" parent="1">
          <mxGeometry x="225" y="252" width="20" height="20" as="geometry" />
        </mxCell>
        <mxCell id="nZG-m9UGaCtWOJ31mHN9-19" value="" style="endArrow=classic;html=1;rounded=0;entryX=0.909;entryY=1;entryDx=0;entryDy=0;entryPerimeter=0;" edge="1" parent="1" target="nZG-m9UGaCtWOJ31mHN9-4">
          <mxGeometry width="50" height="50" relative="1" as="geometry">
            <mxPoint x="235" y="340" as="sourcePoint" />
            <mxPoint x="315" y="340" as="targetPoint" />
            <Array as="points">
              <mxPoint x="280" y="340" />
            </Array>
          </mxGeometry>
        </mxCell>
        <mxCell id="nZG-m9UGaCtWOJ31mHN9-20" value="" style="endArrow=classic;html=1;rounded=0;entryX=0.091;entryY=1;entryDx=0;entryDy=0;entryPerimeter=0;" edge="1" parent="1" target="nZG-m9UGaCtWOJ31mHN9-4">
          <mxGeometry width="50" height="50" relative="1" as="geometry">
            <mxPoint x="240" y="340" as="sourcePoint" />
            <mxPoint x="170" y="340" as="targetPoint" />
            <Array as="points">
              <mxPoint x="190" y="340" />
            </Array>
          </mxGeometry>
        </mxCell>
        <mxCell id="nZG-m9UGaCtWOJ31mHN9-22" value="" style="endArrow=classic;html=1;rounded=0;entryX=0;entryY=0.5;entryDx=0;entryDy=0;" edge="1" parent="1" target="nZG-m9UGaCtWOJ31mHN9-15">
          <mxGeometry width="50" height="50" relative="1" as="geometry">
            <mxPoint x="235" y="360" as="sourcePoint" />
            <mxPoint x="160" y="250" as="targetPoint" />
            <Array as="points">
              <mxPoint x="160" y="360" />
              <mxPoint x="160" y="262" />
            </Array>
          </mxGeometry>
        </mxCell>
        <mxCell id="nZG-m9UGaCtWOJ31mHN9-23" value="前馈网络层" style="rounded=0;whiteSpace=wrap;html=1;" vertex="1" parent="1">
          <mxGeometry x="180" y="200" width="110" height="30" as="geometry" />
        </mxCell>
        <mxCell id="nZG-m9UGaCtWOJ31mHN9-26" value="+" style="ellipse;whiteSpace=wrap;html=1;aspect=fixed;direction=south;" vertex="1" parent="1">
          <mxGeometry x="403" y="390" width="20" height="20" as="geometry" />
        </mxCell>
        <mxCell id="nZG-m9UGaCtWOJ31mHN9-29" value="" style="edgeStyle=orthogonalEdgeStyle;rounded=0;orthogonalLoop=1;jettySize=auto;html=1;" edge="1" parent="1" source="nZG-m9UGaCtWOJ31mHN9-28" target="nZG-m9UGaCtWOJ31mHN9-26">
          <mxGeometry relative="1" as="geometry" />
        </mxCell>
        <mxCell id="nZG-m9UGaCtWOJ31mHN9-28" value="位置嵌入" style="rounded=0;whiteSpace=wrap;html=1;" vertex="1" parent="1">
          <mxGeometry x="473" y="385" width="110" height="30" as="geometry" />
        </mxCell>
        <mxCell id="nZG-m9UGaCtWOJ31mHN9-38" value="" style="edgeStyle=orthogonalEdgeStyle;rounded=0;orthogonalLoop=1;jettySize=auto;html=1;" edge="1" parent="1" source="nZG-m9UGaCtWOJ31mHN9-39" target="nZG-m9UGaCtWOJ31mHN9-44">
          <mxGeometry relative="1" as="geometry" />
        </mxCell>
        <mxCell id="nZG-m9UGaCtWOJ31mHN9-39" value="多头自注意力层" style="rounded=0;whiteSpace=wrap;html=1;" vertex="1" parent="1">
          <mxGeometry x="358" y="290" width="110" height="30" as="geometry" />
        </mxCell>
        <mxCell id="nZG-m9UGaCtWOJ31mHN9-40" value="" style="edgeStyle=orthogonalEdgeStyle;rounded=0;orthogonalLoop=1;jettySize=auto;html=1;" edge="1" parent="1" target="nZG-m9UGaCtWOJ31mHN9-39">
          <mxGeometry relative="1" as="geometry">
            <mxPoint x="413" y="390" as="sourcePoint" />
          </mxGeometry>
        </mxCell>
        <mxCell id="nZG-m9UGaCtWOJ31mHN9-56" style="edgeStyle=orthogonalEdgeStyle;rounded=0;orthogonalLoop=1;jettySize=auto;html=1;exitX=0.5;exitY=0;exitDx=0;exitDy=0;entryX=0.5;entryY=1;entryDx=0;entryDy=0;" edge="1" parent="1" source="nZG-m9UGaCtWOJ31mHN9-44" target="nZG-m9UGaCtWOJ31mHN9-50">
          <mxGeometry relative="1" as="geometry" />
        </mxCell>
        <mxCell id="nZG-m9UGaCtWOJ31mHN9-44" value="+" style="ellipse;whiteSpace=wrap;html=1;aspect=fixed;" vertex="1" parent="1">
          <mxGeometry x="403" y="252" width="20" height="20" as="geometry" />
        </mxCell>
        <mxCell id="nZG-m9UGaCtWOJ31mHN9-45" value="" style="endArrow=classic;html=1;rounded=0;entryX=0.909;entryY=1;entryDx=0;entryDy=0;entryPerimeter=0;" edge="1" parent="1" target="nZG-m9UGaCtWOJ31mHN9-39">
          <mxGeometry width="50" height="50" relative="1" as="geometry">
            <mxPoint x="413" y="340" as="sourcePoint" />
            <mxPoint x="493" y="340" as="targetPoint" />
            <Array as="points">
              <mxPoint x="458" y="340" />
            </Array>
          </mxGeometry>
        </mxCell>
        <mxCell id="nZG-m9UGaCtWOJ31mHN9-46" value="" style="endArrow=classic;html=1;rounded=0;entryX=0.091;entryY=1;entryDx=0;entryDy=0;entryPerimeter=0;" edge="1" parent="1" target="nZG-m9UGaCtWOJ31mHN9-39">
          <mxGeometry width="50" height="50" relative="1" as="geometry">
            <mxPoint x="418" y="340" as="sourcePoint" />
            <mxPoint x="348" y="340" as="targetPoint" />
            <Array as="points">
              <mxPoint x="368" y="340" />
            </Array>
          </mxGeometry>
        </mxCell>
        <mxCell id="nZG-m9UGaCtWOJ31mHN9-47" value="" style="endArrow=classic;html=1;rounded=0;entryX=0;entryY=0.5;entryDx=0;entryDy=0;" edge="1" parent="1">
          <mxGeometry width="50" height="50" relative="1" as="geometry">
            <mxPoint x="413" y="360" as="sourcePoint" />
            <mxPoint x="422" y="262" as="targetPoint" />
            <Array as="points">
              <mxPoint x="493" y="360" />
              <mxPoint x="493" y="310" />
              <mxPoint x="492" y="262" />
            </Array>
          </mxGeometry>
        </mxCell>
        <mxCell id="nZG-m9UGaCtWOJ31mHN9-66" style="edgeStyle=orthogonalEdgeStyle;rounded=0;orthogonalLoop=1;jettySize=auto;html=1;exitX=0.5;exitY=0;exitDx=0;exitDy=0;entryX=0.5;entryY=1;entryDx=0;entryDy=0;" edge="1" parent="1" source="nZG-m9UGaCtWOJ31mHN9-48" target="nZG-m9UGaCtWOJ31mHN9-65">
          <mxGeometry relative="1" as="geometry" />
        </mxCell>
        <mxCell id="nZG-m9UGaCtWOJ31mHN9-48" value="前馈网络层" style="rounded=0;whiteSpace=wrap;html=1;" vertex="1" parent="1">
          <mxGeometry x="358" y="110" width="110" height="30" as="geometry" />
        </mxCell>
        <mxCell id="nZG-m9UGaCtWOJ31mHN9-49" value="" style="edgeStyle=orthogonalEdgeStyle;rounded=0;orthogonalLoop=1;jettySize=auto;html=1;" edge="1" parent="1" source="nZG-m9UGaCtWOJ31mHN9-50" target="nZG-m9UGaCtWOJ31mHN9-51">
          <mxGeometry relative="1" as="geometry" />
        </mxCell>
        <mxCell id="nZG-m9UGaCtWOJ31mHN9-50" value="多头自注意力层" style="rounded=0;whiteSpace=wrap;html=1;" vertex="1" parent="1">
          <mxGeometry x="358" y="202" width="110" height="30" as="geometry" />
        </mxCell>
        <mxCell id="nZG-m9UGaCtWOJ31mHN9-64" value="" style="edgeStyle=orthogonalEdgeStyle;rounded=0;orthogonalLoop=1;jettySize=auto;html=1;" edge="1" parent="1" source="nZG-m9UGaCtWOJ31mHN9-51" target="nZG-m9UGaCtWOJ31mHN9-48">
          <mxGeometry relative="1" as="geometry" />
        </mxCell>
        <mxCell id="nZG-m9UGaCtWOJ31mHN9-51" value="+" style="ellipse;whiteSpace=wrap;html=1;aspect=fixed;" vertex="1" parent="1">
          <mxGeometry x="403" y="164" width="20" height="20" as="geometry" />
        </mxCell>
        <mxCell id="nZG-m9UGaCtWOJ31mHN9-57" value="" style="endArrow=classic;html=1;rounded=0;entryX=1;entryY=0.5;entryDx=0;entryDy=0;" edge="1" parent="1" target="nZG-m9UGaCtWOJ31mHN9-51">
          <mxGeometry width="50" height="50" relative="1" as="geometry">
            <mxPoint x="413" y="248" as="sourcePoint" />
            <mxPoint x="422" y="150" as="targetPoint" />
            <Array as="points">
              <mxPoint x="493" y="248" />
              <mxPoint x="493" y="198" />
              <mxPoint x="492" y="174" />
            </Array>
          </mxGeometry>
        </mxCell>
        <mxCell id="nZG-m9UGaCtWOJ31mHN9-59" value="" style="endArrow=classic;html=1;rounded=0;exitX=0.5;exitY=0;exitDx=0;exitDy=0;entryX=0.227;entryY=1;entryDx=0;entryDy=0;entryPerimeter=0;" edge="1" parent="1" source="nZG-m9UGaCtWOJ31mHN9-23" target="nZG-m9UGaCtWOJ31mHN9-50">
          <mxGeometry width="50" height="50" relative="1" as="geometry">
            <mxPoint x="380" y="420" as="sourcePoint" />
            <mxPoint x="400" y="240" as="targetPoint" />
            <Array as="points">
              <mxPoint x="235" y="180" />
              <mxPoint x="320" y="180" />
              <mxPoint x="320" y="250" />
              <mxPoint x="383" y="250" />
            </Array>
          </mxGeometry>
        </mxCell>
        <mxCell id="nZG-m9UGaCtWOJ31mHN9-72" style="edgeStyle=orthogonalEdgeStyle;rounded=0;orthogonalLoop=1;jettySize=auto;html=1;exitX=0.5;exitY=0;exitDx=0;exitDy=0;entryX=0.5;entryY=1;entryDx=0;entryDy=0;" edge="1" parent="1" source="nZG-m9UGaCtWOJ31mHN9-65" target="nZG-m9UGaCtWOJ31mHN9-71">
          <mxGeometry relative="1" as="geometry" />
        </mxCell>
        <mxCell id="nZG-m9UGaCtWOJ31mHN9-65" value="+" style="ellipse;whiteSpace=wrap;html=1;aspect=fixed;" vertex="1" parent="1">
          <mxGeometry x="403" y="70" width="20" height="20" as="geometry" />
        </mxCell>
        <mxCell id="nZG-m9UGaCtWOJ31mHN9-67" value="" style="endArrow=classic;html=1;rounded=0;entryX=1;entryY=0.5;entryDx=0;entryDy=0;" edge="1" parent="1">
          <mxGeometry width="50" height="50" relative="1" as="geometry">
            <mxPoint x="412.9999999999999" y="154" as="sourcePoint" />
            <mxPoint x="422.9999999999999" y="80" as="targetPoint" />
            <Array as="points">
              <mxPoint x="493" y="154" />
              <mxPoint x="493" y="104" />
              <mxPoint x="492" y="80" />
            </Array>
          </mxGeometry>
        </mxCell>
        <mxCell id="nZG-m9UGaCtWOJ31mHN9-76" value="" style="edgeStyle=orthogonalEdgeStyle;rounded=0;orthogonalLoop=1;jettySize=auto;html=1;" edge="1" parent="1" source="nZG-m9UGaCtWOJ31mHN9-71" target="nZG-m9UGaCtWOJ31mHN9-73">
          <mxGeometry relative="1" as="geometry" />
        </mxCell>
        <mxCell id="nZG-m9UGaCtWOJ31mHN9-71" value="线性层" style="rounded=0;whiteSpace=wrap;html=1;" vertex="1" parent="1">
          <mxGeometry x="358" y="3" width="110" height="30" as="geometry" />
        </mxCell>
        <mxCell id="nZG-m9UGaCtWOJ31mHN9-80" value="" style="edgeStyle=orthogonalEdgeStyle;rounded=0;orthogonalLoop=1;jettySize=auto;html=1;" edge="1" parent="1" source="nZG-m9UGaCtWOJ31mHN9-73" target="nZG-m9UGaCtWOJ31mHN9-79">
          <mxGeometry relative="1" as="geometry" />
        </mxCell>
        <mxCell id="nZG-m9UGaCtWOJ31mHN9-73" value="Softmax层" style="rounded=0;whiteSpace=wrap;html=1;" vertex="1" parent="1">
          <mxGeometry x="358" y="-47" width="110" height="30" as="geometry" />
        </mxCell>
        <mxCell id="nZG-m9UGaCtWOJ31mHN9-79" value="输出预测" style="rounded=0;whiteSpace=wrap;html=1;" vertex="1" parent="1">
          <mxGeometry x="358" y="-100" width="110" height="30" as="geometry" />
        </mxCell>
      </root>
    </mxGraphModel>
  </diagram>
</mxfile>
